<?xml version="1.0" encoding="UTF-8" standalone="no"?>
<svg
   width="22"
   height="22"
   viewBox="0 0 22 22"
   fill="none"
   version="1.1"
   id="svg1"
   sodipodi:docname="like-button.svg"
   inkscape:version="1.3 (0e150ed6c4, 2023-07-21)"
   xmlns:inkscape="http://www.inkscape.org/namespaces/inkscape"
   xmlns:sodipodi="http://sodipodi.sourceforge.net/DTD/sodipodi-0.dtd"
   xmlns="http://www.w3.org/2000/svg"
   xmlns:svg="http://www.w3.org/2000/svg">
  <defs
     id="defs1" />
  <sodipodi:namedview
     id="namedview1"
     pagecolor="#505050"
     bordercolor="#ffffff"
     borderopacity="1"
     inkscape:showpageshadow="0"
     inkscape:pageopacity="0"
     inkscape:pagecheckerboard="1"
     inkscape:deskcolor="#d1d1d1"
     inkscape:zoom="37.772727"
     inkscape:cx="10.986763"
     inkscape:cy="7.0288809"
     inkscape:window-width="1920"
     inkscape:window-height="1027"
     inkscape:window-x="1912"
     inkscape:window-y="-8"
     inkscape:window-maximized="1"
     inkscape:current-layer="svg1" />
  <path
     d="M 11.3741,3.73671 11.0005,4.15666 10.627,3.73671 9.78047,2.78515 9.77992,2.78454 C 7.78271,0.531979 4.59762,0.209745 2.47664,2.1814 -0.0175439,4.50389 -0.15494,8.70296 2.0848,11.2289 l 8.3142,9.3653 c 0,0 0,10e-5 1e-4,10e-5 0.3381,0.3806 0.8604,0.3806 1.1986,0 l 10e-5,-10e-5 8.3144,-9.3655 10e-5,-10e-5 C 22.1559,8.70275 22.0186,4.50401 19.5245,2.18152 17.065175,0.22160043 14.52448,0.42591065 11.3741,3.73671 Z"
     stroke="#101010"
     id="path1"
     sodipodi:nodetypes="ccccccccccccccc" />
</svg>
